<?xml version="1.0" encoding="utf-8"?>
<svg version="1.1" id="Layer_1" xmlns="http://www.w3.org/2000/svg" xmlns:xlink="http://www.w3.org/1999/xlink" x="0px" y="0px"
	 viewBox="0 0 512.84 512" xml:space="preserve">
<g>
	<circle fill="#2C2A75" cx="256.84" cy="256" r="256"/>
	<path fill="#FFFFFF" d="M386.26,258.48c-0.15,71.55-59.06,129.7-131.19,129.51c-70.53-0.18-128.38-59.23-128.2-130.86
		c0.17-71.17,58.55-128.64,130.38-128.36C328.91,129.05,386.42,186.87,386.26,258.48z M257.54,344.98
		c48.06-0.02,88.28-41.13,88.29-90.25c0.01-47.94-41.59-88.71-90.25-88.46c-47.96,0.24-88.68,41.86-88.45,90.41
		C167.35,304.76,208.56,345,257.54,344.98z"/>
	<path fill="#71CBF2" d="M257.54,344.98c-48.98,0.02-90.19-40.22-90.42-88.3c-0.23-48.54,40.49-90.16,88.45-90.41
		c48.66-0.25,90.26,40.52,90.25,88.46C345.82,303.85,305.6,344.96,257.54,344.98z M226.55,255.52
		c-0.09,16.68,13.48,30.39,30.05,30.37c16.25-0.02,29.99-13.67,30.12-29.93c0.13-16.57-13.5-30.24-30.17-30.25
		C240.04,225.7,226.64,239.01,226.55,255.52z"/>
	<path fill="#122340" d="M226.55,255.52c0.09-16.5,13.48-29.82,30-29.81c16.67,0.01,30.3,13.68,30.17,30.25
		c-0.13,16.26-13.86,29.91-30.12,29.93C240.03,285.91,226.47,272.2,226.55,255.52z"/>
	<g>
		<path fill="#FFFFFF" d="M449.9,365.2c5.7,3.17,10.81,6.01,16.4,9.12c-21.06,37.8-50.16,66.84-88.18,88.25
			c-3.01-5.4-5.91-10.63-9.1-16.36C403.3,426.58,430.15,399.97,449.9,365.2z"/>
		<path fill="#FFFFFF" d="M418.32,347.66c4.28,2.4,9.38,5.26,15.03,8.42c-17.81,31.36-41.94,55.5-73.49,73.52
			c-3.13-5.57-6.05-10.78-8.44-15.05c12.62-10.27,25.66-19.3,36.72-30.33C399.06,373.32,407.97,360.39,418.32,347.66z"/>
		<path fill="#FFFFFF" d="M332.83,381.1c10.05-8.16,20.19-15.14,28.75-23.69c8.42-8.42,15.23-18.44,23.23-28.37
			c4.55,2.54,9.8,5.46,15.43,8.6c-14.3,25.19-33.65,44.48-58.76,58.82C338.39,390.99,335.51,385.88,332.83,381.1z"/>
	</g>
	<g>
		<path fill="#FFFFFF" d="M63.54,149.51c-3.92-2.19-9.02-5.04-14.57-8.14c21.09-37.84,50.2-66.86,87.99-88.13
			c1.68,2.86,3.27,5.51,4.79,8.2c1.44,2.54,2.8,5.12,3.51,6.43c-15.36,12.44-31.23,23.33-44.63,36.7
			C87.23,117.95,76.29,133.83,63.54,149.51z"/>
		<path fill="#FFFFFF" d="M155.4,86.1c3.24,5.8,6.09,10.91,9.19,16.47c-28.08,16.06-50.06,37.9-66.18,66.25
			c-5.51-3.07-10.74-5.99-16.5-9.2C99.71,128.25,123.85,104.12,155.4,86.1z"/>
		<path fill="#FFFFFF" d="M173.8,119.24c3.12,5.6,5.97,10.71,9.22,16.53c-21.89,12.37-39.02,29.34-51.46,51.52
			c-5.75-3.2-11-6.12-16.55-9.2C129.29,152.96,148.51,133.73,173.8,119.24z"/>
	</g>
</g>
</svg>
